#!OML:ASF H:\LiuWeirdWalks\Patient Classification 1\Patient 1\Session 1\male.ASF
:FULLY-SPECIFIED
:DEGREES
629
root 3.95961 17.8258 39.7558 -0.867479 0.56445 -7.64485
lowerback 11.2603 -0.0868987 5.03869
upperback -0.48163 0.90196 4.92065
thorax -6.85955 0.355969 2.21326
lowerneck -26.8659 1.50211 5.59187
upperneck 24.0908 1.44946 -5.49874
head 12.5367 0.394355 -2.78392
rclavicle 3.52843e-015 1.03368e-014
rhumerus -41.5818 -2.26216 -75.9033
rradius 34.7876
rwrist -4.38485
rhand -18.4536 0.491361
rfingers 7.12502
rthumb 7.83254 -29.3436
lclavicle 3.52843e-015 1.03368e-014
lhumerus -36.263 -2.68997 83.3006
lradius 42.4797
lwrist 6.77068
lhand -17.3437 -7.78919
lfingers 7.12502
lthumb 8.90365 22.003
rfemur -26.7688 -9.97391 24.6302
rtibia 65.7253
rfoot -15.5031 -15.3747
rtoes -10.7604
lfemur -14.2348 -1.88316 -16.5717
ltibia 34.1893
lfoot -7.46769 14.8585
ltoes -3.74881
630
root 3.94834 17.8268 39.7837 -0.742038 0.518556 -7.58849
lowerback 11.1454 -0.0482838 4.99298
upperback -0.502239 0.936368 4.88669
thorax -6.81615 0.374156 2.19635
lowerneck -26.8712 1.48712 5.57789
upperneck 24.0831 1.42991 -5.4868
head 12.5331 0.385954 -2.78034
rclavicle 2.73329e-015 -3.10104e-014
rhumerus -41.6409 -2.34788 -75.8466
rradius 34.6624
rwrist -4.50737
rhand -18.3458 0.491213
rfingers 7.12502
rthumb 7.93661 -29.3398
lclavicle 2.73329e-015 -3.10104e-014
lhumerus -36.2904 -2.65313 83.2811
lradius 42.4753
lwrist 6.85434
lhand -17.2635 -7.78126
lfingers 7.12502
lthumb 8.9811 22.0076
rfemur -26.5234 -9.8399 24.6199
rtibia 64.5684
rfoot -15.5968 -15.3152
rtoes -10.8776
lfemur -14.2437 -1.89155 -16.5896
ltibia 34.1738
lfoot -7.51747 14.9349
ltoes -3.80955
631
root 3.93641 17.8284 39.8126 -0.612906 0.483613 -7.52931
lowerback 11.0141 -0.01923 4.92815
upperback -0.526097 0.955005 4.85965
thorax -6.76732 0.385508 2.20028
lowerneck -26.8643 1.4723 5.55536
upperneck 24.0937 1.41331 -5.46777
head 12.5345 0.379287 -2.7724
rclavicle -6.95746e-016 -3.57812e-014
rhumerus -41.7051 -2.40831 -75.793
rradius 34.5533
rwrist -4.61875
rhand -18.2499 0.520218
rfingers 7.12502
rthumb 8.02918 -29.3073
lclavicle -6.95746e-016 -3.57812e-014
lhumerus -36.3461 -2.62313 83.2791
lradius 42.4582
lwrist 6.92749
lhand -17.1451 -7.76431
lfingers 7.12502
lthumb 9.09533 22.0196
rfemur -26.2573 -9.70894 24.6064
rtibia 63.3575
rfoot -15.6767 -15.238
rtoes -11.0223
lfemur -14.2483 -1.90158 -16.6103
ltibia 34.1443
lfoot -7.55979 15.0069
ltoes -3.87579
632
root 3.92347 17.8307 39.8424 -0.485678 0.470146 -7.47863
lowerback 10.8696 0.00661399 4.87825
upperback -0.559539 0.970964 4.83037
thorax -6.72092 0.394901 2.19408
lowerneck -26.821 1.44021 5.51329
upperneck 24.1181 1.37735 -5.43064
head 12.5328 0.365224 -2.7577
rclavicle -7.50412e-015 1.59028e-015
rhumerus -41.8032 -2.48339 -75.7377
rradius 34.4671
rwrist -4.74047
rhand -18.1667 0.545749
rfingers 7.12502
rthumb 8.10941 -29.2787
lclavicle -7.50412e-015 1.59028e-015
lhumerus -36.432 -2.65914 83.3012
lradius 42.4171
lwrist 6.98883
lhand -17.0085 -7.74203
lfingers 7.12502
lthumb 9.22713 22.0361
rfemur -25.96 -9.5792 24.6003
rtibia 62.0908
rfoot -15.7465 -15.1295
rtoes -11.1394
lfemur -14.2477 -1.91032 -16.6187
ltibia 34.1054
lfoot -7.61149 15.0598
ltoes -3.91681
633
root 3.90955 17.8333 39.8728 -0.374443 0.478185 -7.44011
lowerback 10.7305 0.0123204 4.81388
upperback -0.588419 0.959593 4.81623
thorax -6.67314 0.391773 2.21665
lowerneck -26.786 1.42921 5.4909
upperneck 24.1708 1.36808 -5.40865
head 12.5461 0.362786 -2.74813
rclavicle -6.80837e-015 -1.74931e-014
rhumerus -41.8858 -2.51474 -75.696
rradius 34.3848
rwrist -4.88975
rhand -18.0936 0.554719
rfingers 7.12502
rthumb 8.17996 -29.2669
lclavicle -6.80837e-015 -1.74931e-014
lhumerus -36.5314 -2.68411 83.3283
lradius 42.3375
lwrist 6.97882
lhand -16.8628 -7.75408
lfingers 7.12502
lthumb 9.36771 22.0178
rfemur -25.6148 -9.45151 24.603
rtibia 60.7695
rfoot -15.8051 -14.9786
rtoes -11.2139
lfemur -14.2293 -1.91643 -16.6109
ltibia 34.06
lfoot -7.67323 15.0922
ltoes -3.93911
634
root 3.89454 17.8356 39.9033 -0.278333 0.507884 -7.40468
lowerback 10.5998 0.0096646 4.7454
upperback -0.617313 0.937783 4.80649
thorax -6.63021 0.383699 2.24795
lowerneck -26.7447 1.41954 5.46582
upperneck 24.2363 1.36237 -5.38595
head 12.5634 0.361902 -2.73744
rclavicle -1.32192e-014 -4.21423e-014
rhumerus -41.9734 -2.56168 -75.641
rradius 34.306
rwrist -5.00904
rhand -17.9993 0.555293
rfingers 7.12502
rthumb 8.27103 -29.2628
lclavicle -1.32192e-014 -4.21423e-014
lhumerus -36.6476 -2.73421 83.3718
lradius 42.2277
lwrist 6.91667
lhand -16.7082 -7.76656
lfingers 7.12502
lthumb 9.51686 21.9985
rfemur -25.2175 -9.32246 24.6049
rtibia 59.3988
rfoot -15.8535 -14.7795
rtoes -11.2679
lfemur -14.1989 -1.91596 -16.5957
ltibia 34.0148
lfoot -7.75751 15.0987
ltoes -3.95475
635
root 3.87839 17.8375 39.9341 -0.18508 0.557448 -7.35907
lowerback 10.5076 0.179358 5.02923
upperback -0.686592 1.18514 4.62835
thorax -6.64336 0.490754 1.86027
lowerneck -26.8115 1.11398 5.08862
upperneck 24.3864 0.992973 -5.07413
head 12.6069 0.2068 -2.62438
rclavicle -1.05356e-014 -1.43125e-014
rhumerus -42.3091 -3.29477 -75.3935
rradius 34.2914
rwrist -5.09352
rhand -17.897 0.535251
rfingers 7.12502
rthumb 8.36975 -29.2789
lclavicle -1.05356e-014 -1.43125e-014
lhumerus -36.6565 -3.49606 83.5865
lradius 42.0375
lwrist 6.83802
lhand -16.5289 -7.78193
lfingers 7.12502
lthumb 9.68992 21.9752
rfemur -24.7856 -9.18969 24.5935
rtibia 57.9879
rfoot -15.8926 -14.5304
rtoes -11.3183
lfemur -14.1673 -1.90994 -16.587
ltibia 33.9671
lfoot -7.85697 15.0797
ltoes -3.97176
636
root 3.86171 17.8384 39.9639 -0.11923 0.623011 -7.30301
lowerback 10.436 0.296256 5.2096
upperback -0.735924 1.35162 4.48862
thorax -6.64703 0.562693 1.58496
lowerneck -26.8553 0.891624 4.81764
upperneck 24.5041 0.723221 -4.84789
head 12.643 0.0940381 -2.54334
rclavicle 2.13942e-014 -1.90833e-014
rhumerus -42.5711 -3.86646 -75.19
rradius 34.2605
rwrist -5.1895
rhand -17.7859 0.509685
rfingers 7.12502
rthumb 8.47697 -29.3002
lclavicle 2.13942e-014 -1.90833e-014
lhumerus -36.6856 -4.09006 83.7684
lradius 41.8226
lwrist 6.7378
lhand -16.3543 -7.79245
lfingers 7.12502
lthumb 9.85838 21.9568
rfemur -24.2978 -9.05269 24.562
rtibia 56.5439
rfoot -15.9167 -14.2388
rtoes -11.411
lfemur -14.1109 -1.90128 -16.5874
ltibia 33.92
lfoot -7.97189 15.0395
ltoes -3.99866
637
root 3.8445 17.8397 39.994 -0.0251742 0.697396 -7.20494
lowerback 10.3232 0.398078 5.3092
upperback -0.787369 1.48466 4.35534
thorax -6.63 0.621534 1.36774
lowerneck -26.8928 0.696281 4.58102
upperneck 24.5989 0.487092 -4.65489
head 12.6725 -0.00526881 -2.47428
rclavicle 1.21507e-014 -1.74931e-014
rhumerus -42.8096 -4.38338 -74.9952
rradius 34.2324
rwrist -5.29712
rhand -17.6657 0.461231
rfingers 7.12502
rthumb 8.59296 -29.3439
lclavicle 1.21507e-014 -1.74931e-014
lhumerus -36.7293 -4.62419 83.9501
lradius 41.5841
lwrist 6.65391
lhand -16.1667 -7.76159
lfingers 7.12502
lthumb 10.0393 21.979
rfemur -23.8199 -8.88911 24.4847
rtibia 55.0782
rfoot -15.9305 -13.9164
rtoes -11.559
lfemur -14.0823 -1.88737 -16.6302
ltibia 33.8683
lfoot -8.09232 14.9839
ltoes -4.05432
638
root 3.82659 17.8408 40.024 0.077341 0.777864 -7.09607
lowerback 10.1807 0.423401 5.23932
upperback -0.825466 1.49585 4.29084
thorax -6.58881 0.628711 1.33775
lowerneck -26.8902 0.624443 4.4913
upperneck 24.6645 0.402256 -4.58207
head 12.693 -0.0405321 -2.44793
rclavicle -1.32689e-014 -1.90833e-014
rhumerus -42.9388 -4.6281 -74.8783
rradius 34.1828
rwrist -5.44189
rhand -17.5545 0.395498
rfingers 7.12502
rthumb 8.70029 -29.4052
lclavicle -1.32689e-014 -1.90833e-014
lhumerus -36.8166 -4.86985 84.0755
lradius 41.3252
lwrist 6.5868
lhand -15.9961 -7.72858
lfingers 7.12502
lthumb 10.2039 22.0039
rfemur -23.3273 -8.68447 24.3938
rtibia 53.594
rfoot -15.9327 -13.5824
rtoes -11.7192
lfemur -14.0635 -1.86192 -16.6798
ltibia 33.8139
lfoot -8.21637 14.905
ltoes -4.13114
